<svg xmlns="http://www.w3.org/2000/svg" viewBox="0 0 256 256" width="256" height="256">
  <defs>
    <!-- Gold Gradient -->
    <linearGradient id="gold_grad" x1="0%" y1="0%" x2="100%" y2="100%">
      <stop offset="0%" stop-color="#FFE082" />
      <stop offset="50%" stop-color="#FFD54F" />
      <stop offset="100%" stop-color="#FF8F00" />
    </linearGradient>
    
    <!-- Light Gold Gradient -->
    <linearGradient id="light_gold" x1="0%" y1="0%" x2="0%" y2="100%">
      <stop offset="0%" stop-color="#FFF9C4" />
      <stop offset="100%" stop-color="#FFE082" />
    </linearGradient>

    <!-- Blue Gradient -->
    <linearGradient id="blue_grad" x1="0%" y1="0%" x2="100%" y2="100%">
      <stop offset="0%" stop-color="#80D8FF" />
      <stop offset="100%" stop-color="#2979FF" />
    </linearGradient>
    
    <!-- Dark Blue Gradient -->
    <linearGradient id="dark_blue" x1="0%" y1="0%" x2="100%" y2="100%">
      <stop offset="0%" stop-color="#1A237E" />
      <stop offset="100%" stop-color="#0D47A1" />
    </linearGradient>

    <!-- Green Gradient -->
    <linearGradient id="green_grad" x1="0%" y1="0%" x2="100%" y2="100%">
      <stop offset="0%" stop-color="#A5D6A7" />
      <stop offset="100%" stop-color="#2E7D32" />
    </linearGradient>

    <!-- Purple Gradient -->
    <linearGradient id="purple_grad" x1="0%" y1="0%" x2="100%" y2="100%">
      <stop offset="0%" stop-color="#E1BEE7" />
      <stop offset="100%" stop-color="#7B1FA2" />
    </linearGradient>

    <!-- Teal Gradient -->
    <linearGradient id="teal_grad" x1="0%" y1="0%" x2="100%" y2="100%">
      <stop offset="0%" stop-color="#B2DFDB" />
      <stop offset="100%" stop-color="#00796B" />
    </linearGradient>

    <!-- Orange Gradient -->
    <linearGradient id="orange_grad" x1="0%" y1="0%" x2="100%" y2="100%">
      <stop offset="0%" stop-color="#FFCC80" />
      <stop offset="100%" stop-color="#E65100" />
    </linearGradient>

    <!-- Crimson Gradient -->
    <linearGradient id="crimson_grad" x1="0%" y1="0%" x2="100%" y2="100%">
      <stop offset="0%" stop-color="#FF8A80" />
      <stop offset="100%" stop-color="#C62828" />
    </linearGradient>
    
    <!-- Background Glows -->
    <radialGradient id="gold_glow" cx="50%" cy="50%" r="50%">
      <stop offset="0%" stop-color="#FFD54F" stop-opacity="0.25" />
      <stop offset="100%" stop-color="#FFD54F" stop-opacity="0.0" />
    </radialGradient>
    <radialGradient id="blue_glow" cx="50%" cy="50%" r="50%">
      <stop offset="0%" stop-color="#2979FF" stop-opacity="0.25" />
      <stop offset="100%" stop-color="#2979FF" stop-opacity="0.0" />
    </radialGradient>
    <radialGradient id="green_glow" cx="50%" cy="50%" r="50%">
      <stop offset="0%" stop-color="#81C784" stop-opacity="0.25" />
      <stop offset="100%" stop-color="#81C784" stop-opacity="0.0" />
    </radialGradient>
    <radialGradient id="purple_glow" cx="50%" cy="50%" r="50%">
      <stop offset="0%" stop-color="#BA68C8" stop-opacity="0.25" />
      <stop offset="100%" stop-color="#BA68C8" stop-opacity="0.0" />
    </radialGradient>
    <radialGradient id="teal_glow" cx="50%" cy="50%" r="50%">
      <stop offset="0%" stop-color="#4DB6AC" stop-opacity="0.25" />
      <stop offset="100%" stop-color="#4DB6AC" stop-opacity="0.0" />
    </radialGradient>
    <radialGradient id="orange_glow" cx="50%" cy="50%" r="50%">
      <stop offset="0%" stop-color="#FFB74D" stop-opacity="0.25" />
      <stop offset="100%" stop-color="#FFB74D" stop-opacity="0.0" />
    </radialGradient>
    <radialGradient id="crimson_glow" cx="50%" cy="50%" r="50%">
      <stop offset="0%" stop-color="#FF8A80" stop-opacity="0.25" />
      <stop offset="100%" stop-color="#FF8A80" stop-opacity="0.0" />
    </radialGradient>
  </defs>
  <!-- Glow Background -->
  <circle cx="128" cy="128" r="110" fill="url(#gold_glow)" />

  <g transform="translate(0, 0)">
    <!-- Starburst Sparkles (luxury) -->
    <path d="M 128 25 L 131 40 L 146 43 L 131 46 L 128 61 L 125 46 L 110 43 L 125 40 Z" fill="#FFFFFF" opacity="0.9" />
    <path d="M 65 65 L 67 73 L 75 75 L 67 77 L 65 85 L 63 77 L 55 75 L 63 73 Z" fill="#FFE082" opacity="0.7" />
    <path d="M 191 65 L 193 73 L 201 75 L 193 77 L 191 85 L 189 77 L 181 75 L 189 73 Z" fill="#FFE082" opacity="0.7" />

    <!-- Trophy Cup Handles -->
    <path d="M 82 85 C 48 85, 48 135, 85 135" fill="none" stroke="url(#gold_grad)" stroke-width="5" stroke-linecap="round" />
    <path d="M 174 85 C 208 85, 208 135, 171 135" fill="none" stroke="url(#gold_grad)" stroke-width="5" stroke-linecap="round" />

    <!-- Trophy Stem and Base -->
    <path d="M 114 150 H 142 L 136 185 H 120 Z" fill="url(#gold_grad)" />
    <path d="M 90 185 H 166 C 166 185, 160 205, 128 205 C 96 205, 90 185, 90 185 Z" fill="url(#gold_grad)" stroke="#FFF9C4" stroke-width="2.5" />
    
    <!-- Trophy Main Bowl -->
    <path d="M 80 75 C 80 128, 96 152, 128 152 C 160 152, 176 128, 176 75 Z" fill="url(#gold_grad)" stroke="#FFF9C4" stroke-width="3.5" />
    <ellipse cx="128" cy="75" rx="48" ry="10" fill="url(#light_gold)" stroke="#FFFFFF" stroke-width="2" />
  </g>
</svg>