<svg xmlns="http://www.w3.org/2000/svg" viewBox="0 0 256 256" width="256" height="256">
  <defs>
    <!-- Gold Gradient -->
    <linearGradient id="gold_grad" x1="0%" y1="0%" x2="100%" y2="100%">
      <stop offset="0%" stop-color="#FFE082" />
      <stop offset="50%" stop-color="#FFD54F" />
      <stop offset="100%" stop-color="#FF8F00" />
    </linearGradient>
    
    <!-- Light Gold Gradient -->
    <linearGradient id="light_gold" x1="0%" y1="0%" x2="0%" y2="100%">
      <stop offset="0%" stop-color="#FFF9C4" />
      <stop offset="100%" stop-color="#FFE082" />
    </linearGradient>

    <!-- Blue Gradient -->
    <linearGradient id="blue_grad" x1="0%" y1="0%" x2="100%" y2="100%">
      <stop offset="0%" stop-color="#80D8FF" />
      <stop offset="100%" stop-color="#2979FF" />
    </linearGradient>
    
    <!-- Dark Blue Gradient -->
    <linearGradient id="dark_blue" x1="0%" y1="0%" x2="100%" y2="100%">
      <stop offset="0%" stop-color="#1A237E" />
      <stop offset="100%" stop-color="#0D47A1" />
    </linearGradient>

    <!-- Green Gradient -->
    <linearGradient id="green_grad" x1="0%" y1="0%" x2="100%" y2="100%">
      <stop offset="0%" stop-color="#A5D6A7" />
      <stop offset="100%" stop-color="#2E7D32" />
    </linearGradient>

    <!-- Purple Gradient -->
    <linearGradient id="purple_grad" x1="0%" y1="0%" x2="100%" y2="100%">
      <stop offset="0%" stop-color="#E1BEE7" />
      <stop offset="100%" stop-color="#7B1FA2" />
    </linearGradient>

    <!-- Teal Gradient -->
    <linearGradient id="teal_grad" x1="0%" y1="0%" x2="100%" y2="100%">
      <stop offset="0%" stop-color="#B2DFDB" />
      <stop offset="100%" stop-color="#00796B" />
    </linearGradient>

    <!-- Orange Gradient -->
    <linearGradient id="orange_grad" x1="0%" y1="0%" x2="100%" y2="100%">
      <stop offset="0%" stop-color="#FFCC80" />
      <stop offset="100%" stop-color="#E65100" />
    </linearGradient>

    <!-- Crimson Gradient -->
    <linearGradient id="crimson_grad" x1="0%" y1="0%" x2="100%" y2="100%">
      <stop offset="0%" stop-color="#FF8A80" />
      <stop offset="100%" stop-color="#C62828" />
    </linearGradient>
    
    <!-- Background Glows -->
    <radialGradient id="gold_glow" cx="50%" cy="50%" r="50%">
      <stop offset="0%" stop-color="#FFD54F" stop-opacity="0.25" />
      <stop offset="100%" stop-color="#FFD54F" stop-opacity="0.0" />
    </radialGradient>
    <radialGradient id="blue_glow" cx="50%" cy="50%" r="50%">
      <stop offset="0%" stop-color="#2979FF" stop-opacity="0.25" />
      <stop offset="100%" stop-color="#2979FF" stop-opacity="0.0" />
    </radialGradient>
    <radialGradient id="green_glow" cx="50%" cy="50%" r="50%">
      <stop offset="0%" stop-color="#81C784" stop-opacity="0.25" />
      <stop offset="100%" stop-color="#81C784" stop-opacity="0.0" />
    </radialGradient>
    <radialGradient id="purple_glow" cx="50%" cy="50%" r="50%">
      <stop offset="0%" stop-color="#BA68C8" stop-opacity="0.25" />
      <stop offset="100%" stop-color="#BA68C8" stop-opacity="0.0" />
    </radialGradient>
    <radialGradient id="teal_glow" cx="50%" cy="50%" r="50%">
      <stop offset="0%" stop-color="#4DB6AC" stop-opacity="0.25" />
      <stop offset="100%" stop-color="#4DB6AC" stop-opacity="0.0" />
    </radialGradient>
    <radialGradient id="orange_glow" cx="50%" cy="50%" r="50%">
      <stop offset="0%" stop-color="#FFB74D" stop-opacity="0.25" />
      <stop offset="100%" stop-color="#FFB74D" stop-opacity="0.0" />
    </radialGradient>
    <radialGradient id="crimson_glow" cx="50%" cy="50%" r="50%">
      <stop offset="0%" stop-color="#FF8A80" stop-opacity="0.25" />
      <stop offset="100%" stop-color="#FF8A80" stop-opacity="0.0" />
    </radialGradient>
  </defs>
  <!-- Glow Background -->
  <circle cx="128" cy="128" r="110" fill="url(#gold_glow)" />

  <g transform="translate(0, 0)">
    <!-- Parchment backing -->
    <path d="M 60 55 Q 128 45, 196 55 Q 206 128, 196 201 Q 128 211, 60 201 Q 50 128, 60 55 Z" 
          fill="url(#gold_grad)" stroke="#FFF59D" stroke-width="3" />
          
    <!-- Decorative border inlay -->
    <path d="M 68 63 Q 128 55, 188 63 Q 196 128, 188 193 Q 128 201, 68 193 Q 60 128, 68 63 Z" 
          fill="none" stroke="#FFF59D" stroke-width="1" opacity="0.6" stroke-dasharray="4,4" />

    <!-- Simulated text lines around the center -->
    <line x1="80" y1="80" x2="176" y2="80" stroke="#FFF59D" stroke-width="2" opacity="0.4" />
    <line x1="80" y1="92" x2="176" y2="92" stroke="#FFF59D" stroke-width="2" opacity="0.4" />
    <line x1="80" y1="164" x2="176" y2="164" stroke="#FFF59D" stroke-width="2" opacity="0.4" />
    <line x1="80" y1="176" x2="176" y2="176" stroke="#FFF59D" stroke-width="2" opacity="0.4" />

    <!-- Elegant Question Mark in center -->
    <path d="M 110 115 C 110 95, 146 95, 146 115 C 146 127, 128 132, 128 142 V 146" 
          fill="none" stroke="#FFFFFF" stroke-width="8" stroke-linecap="round" stroke-linejoin="round" />
    <circle cx="128" cy="158" r="5" fill="#FFFFFF" />
  </g>
</svg>