<svg xmlns="http://www.w3.org/2000/svg" viewBox="0 0 256 256" width="256" height="256">
  <defs>
    <!-- Gold Gradient -->
    <linearGradient id="gold_grad" x1="0%" y1="0%" x2="100%" y2="100%">
      <stop offset="0%" stop-color="#FFE082" />
      <stop offset="50%" stop-color="#FFD54F" />
      <stop offset="100%" stop-color="#FF8F00" />
    </linearGradient>
    
    <!-- Light Gold Gradient -->
    <linearGradient id="light_gold" x1="0%" y1="0%" x2="0%" y2="100%">
      <stop offset="0%" stop-color="#FFF9C4" />
      <stop offset="100%" stop-color="#FFE082" />
    </linearGradient>

    <!-- Blue Gradient -->
    <linearGradient id="blue_grad" x1="0%" y1="0%" x2="100%" y2="100%">
      <stop offset="0%" stop-color="#80D8FF" />
      <stop offset="100%" stop-color="#2979FF" />
    </linearGradient>
    
    <!-- Dark Blue Gradient -->
    <linearGradient id="dark_blue" x1="0%" y1="0%" x2="100%" y2="100%">
      <stop offset="0%" stop-color="#1A237E" />
      <stop offset="100%" stop-color="#0D47A1" />
    </linearGradient>

    <!-- Green Gradient -->
    <linearGradient id="green_grad" x1="0%" y1="0%" x2="100%" y2="100%">
      <stop offset="0%" stop-color="#A5D6A7" />
      <stop offset="100%" stop-color="#2E7D32" />
    </linearGradient>

    <!-- Purple Gradient -->
    <linearGradient id="purple_grad" x1="0%" y1="0%" x2="100%" y2="100%">
      <stop offset="0%" stop-color="#E1BEE7" />
      <stop offset="100%" stop-color="#7B1FA2" />
    </linearGradient>

    <!-- Teal Gradient -->
    <linearGradient id="teal_grad" x1="0%" y1="0%" x2="100%" y2="100%">
      <stop offset="0%" stop-color="#B2DFDB" />
      <stop offset="100%" stop-color="#00796B" />
    </linearGradient>

    <!-- Orange Gradient -->
    <linearGradient id="orange_grad" x1="0%" y1="0%" x2="100%" y2="100%">
      <stop offset="0%" stop-color="#FFCC80" />
      <stop offset="100%" stop-color="#E65100" />
    </linearGradient>

    <!-- Crimson Gradient -->
    <linearGradient id="crimson_grad" x1="0%" y1="0%" x2="100%" y2="100%">
      <stop offset="0%" stop-color="#FF8A80" />
      <stop offset="100%" stop-color="#C62828" />
    </linearGradient>
    
    <!-- Background Glows -->
    <radialGradient id="gold_glow" cx="50%" cy="50%" r="50%">
      <stop offset="0%" stop-color="#FFD54F" stop-opacity="0.25" />
      <stop offset="100%" stop-color="#FFD54F" stop-opacity="0.0" />
    </radialGradient>
    <radialGradient id="blue_glow" cx="50%" cy="50%" r="50%">
      <stop offset="0%" stop-color="#2979FF" stop-opacity="0.25" />
      <stop offset="100%" stop-color="#2979FF" stop-opacity="0.0" />
    </radialGradient>
    <radialGradient id="green_glow" cx="50%" cy="50%" r="50%">
      <stop offset="0%" stop-color="#81C784" stop-opacity="0.25" />
      <stop offset="100%" stop-color="#81C784" stop-opacity="0.0" />
    </radialGradient>
    <radialGradient id="purple_glow" cx="50%" cy="50%" r="50%">
      <stop offset="0%" stop-color="#BA68C8" stop-opacity="0.25" />
      <stop offset="100%" stop-color="#BA68C8" stop-opacity="0.0" />
    </radialGradient>
    <radialGradient id="teal_glow" cx="50%" cy="50%" r="50%">
      <stop offset="0%" stop-color="#4DB6AC" stop-opacity="0.25" />
      <stop offset="100%" stop-color="#4DB6AC" stop-opacity="0.0" />
    </radialGradient>
    <radialGradient id="orange_glow" cx="50%" cy="50%" r="50%">
      <stop offset="0%" stop-color="#FFB74D" stop-opacity="0.25" />
      <stop offset="100%" stop-color="#FFB74D" stop-opacity="0.0" />
    </radialGradient>
    <radialGradient id="crimson_glow" cx="50%" cy="50%" r="50%">
      <stop offset="0%" stop-color="#FF8A80" stop-opacity="0.25" />
      <stop offset="100%" stop-color="#FF8A80" stop-opacity="0.0" />
    </radialGradient>
  </defs>
  <!-- Glow Background -->
  <circle cx="128" cy="128" r="110" fill="url(#orange_glow)" />

  <g transform="translate(0, 0)">
    <!-- Vertical Scroll Sheet -->
    <path d="M 72 45 Q 128 35, 184 45 V 205 Q 128 215, 72 205 Z" fill="url(#orange_grad)" stroke="#FFE082" stroke-width="2.5" />
    
    <!-- Top & Bottom Curl Cylinders -->
    <path d="M 64 35 Q 128 25, 192 35 C 192 35, 192 48, 192 48 Q 128 38, 64 48 Z" fill="#E65100" stroke="#FFE082" stroke-width="1.5" />
    <path d="M 64 201 Q 128 191, 192 201 C 192 201, 192 214, 192 214 Q 128 204, 64 214 Z" fill="#E65100" stroke="#FFE082" stroke-width="1.5" />

    <!-- Elegant Star sparkles on scroll -->
    <path d="M 128 65 L 130 72 L 137 74 L 130 76 L 128 83 L 126 76 L 119 74 L 126 72 Z" fill="#FFFFFF" />
    
    <!-- Glowing Scripture text lines (simulated with paths) -->
    <line x1="90" y1="100" x2="166" y2="100" stroke="#FFFFFF" stroke-width="4.5" stroke-linecap="round" opacity="0.9" />
    <line x1="90" y1="120" x2="166" y2="120" stroke="#FFFFFF" stroke-width="4.5" stroke-linecap="round" opacity="0.9" />
    <line x1="90" y1="140" x2="150" y2="140" stroke="#FFFFFF" stroke-width="4.5" stroke-linecap="round" opacity="0.9" />
    
    <!-- Heart outline embossed at the bottom (representing memory/retention in heart) -->
    <path d="M 128 180 C 128 180, 115 168, 115 160 C 115 154, 120 150, 128 158 C 136 150, 141 154, 141 160 C 141 168, 128 180, 128 180 Z" 
          fill="none" stroke="#FFFFFF" stroke-width="2.5" stroke-linejoin="round" />
  </g>
</svg>